<svg width="226" height="245" viewBox="0 0 226 245" fill="none" xmlns="http://www.w3.org/2000/svg">
<path d="M218.45 113.726C215.616 111.08 212.153 109.2 208.39 108.266C209.08 94.9962 209.02 69.9664 206.8 61.1764L206.66 60.6363C204.93 53.7463 201.33 39.4166 190.75 26.3766C177.63 10.2066 158.28 1.37656 133.24 0.106556C110.09 -1.05344 89.38 7.27638 73.36 24.1764L71.93 25.6866C68.14 29.6866 64.36 33.6366 62.4 35.8766C60.3252 36.6955 58.3574 37.763 56.54 39.0563C49.48 44.1463 45.75 52.1764 45.44 62.9464C45.26 69.1264 45.2 73.7762 45.19 77.2662L41.19 79.5265L2.48999 101.526C1.73434 101.957 1.10601 102.579 0.668705 103.331C0.231397 104.083 0.00068166 104.937 3.84418e-06 105.806V194.806C-0.00108418 195.678 0.228805 196.534 0.666203 197.287C1.1036 198.041 1.73287 198.665 2.48999 199.096L80.74 243.607C81.482 244.029 82.3211 244.251 83.175 244.251C84.0289 244.251 84.868 244.029 85.61 243.607L163.86 199.096C164.617 198.665 165.246 198.041 165.684 197.287C166.121 196.534 166.351 195.678 166.35 194.806V134.317C169.363 132.141 171.978 129.461 174.08 126.397C177.323 121.621 179.248 116.074 179.66 110.317L183.58 116.417C181.245 119.418 179.763 122.993 179.29 126.766C178.852 130.257 179.127 133.8 180.098 137.181C181.069 140.562 182.717 143.711 184.94 146.437C191.13 154.147 197.94 158.127 204.72 158.127C208.187 158.094 211.572 157.074 214.48 155.187C217.339 153.36 219.764 150.931 221.584 148.068C223.405 145.206 224.578 141.98 225.02 138.616L225.67 134.107C226.202 130.379 225.823 126.578 224.566 123.029C223.308 119.48 221.21 116.287 218.45 113.726V113.726ZM9.88001 191.986V108.687L38.75 92.2662L39.12 208.616L9.88001 191.986ZM80.61 31.0563C94.76 16.1263 112.3 9.05626 132.73 10.0563C154.81 11.1663 171.73 18.7563 182.98 32.6363C192.16 43.9563 195.4 56.8462 196.98 63.0362L197.12 63.5865C198.89 70.5865 199.12 94.7563 198.4 108.076L198.11 108.136C197.68 108.226 197.25 108.336 196.81 108.446C195.02 108.92 193.277 109.552 191.6 110.337L182.53 96.2164L180.05 90.7765C178.195 85.883 175.754 81.2324 172.78 76.9264C165.95 67.0364 153.43 55.1466 131.39 50.3966C131.474 49.3747 131.242 48.3519 130.725 47.4664C130.208 46.581 129.431 45.8756 128.5 45.4464C127.89 45.1664 115.75 39.6862 97.87 38.7862C97.6095 38.0441 97.1777 37.374 96.6095 36.8302C96.0413 36.2863 95.3528 35.8841 94.6 35.6564C89.3472 34.1925 83.9317 33.393 78.48 33.2765L79.17 32.5465L80.61 31.0563ZM48.61 92.2662L151.45 150.346L48.98 208.647L48.61 92.2662ZM156.52 191.986L83.2 233.696L54.04 217.107L156.52 158.806V191.986ZM60.42 87.6163C60.6889 87.4218 60.946 87.2115 61.19 86.9864C65.47 85.8164 80.7 83.2364 101.52 97.7364C102.442 98.3778 103.553 98.6903 104.674 98.6232C105.795 98.556 106.861 98.1131 107.7 97.3663C107.927 97.1698 108.134 96.9522 108.32 96.7164C114.96 101.716 123.27 107.486 129.13 109.716C129.998 110.045 130.941 110.126 131.852 109.949C132.763 109.773 133.608 109.346 134.29 108.716C134.505 108.517 134.702 108.3 134.88 108.067L142.21 114.216C152.57 122.926 155.85 130.617 156.52 132.417V141.857L60.42 87.6163ZM168.42 97.9962C172.14 111.586 167.35 119.686 163.42 123.766C159.56 117.208 154.558 111.393 148.65 106.596C138.03 97.6563 132.29 92.8966 132.23 92.8566C131.333 92.1133 130.205 91.7067 129.04 91.7067C128.277 91.7027 127.524 91.8771 126.84 92.2164C126.16 92.55 125.564 93.0338 125.098 93.6315C124.632 94.2291 124.308 94.9253 124.15 95.6666C117.174 90.9725 110.455 85.9082 104.02 80.4962C103.345 79.9271 102.532 79.547 101.662 79.3942C100.793 79.2413 99.8985 79.3217 99.07 79.6266C98.3452 79.8922 97.6918 80.3221 97.161 80.8824C96.6301 81.4428 96.2361 82.1185 96.01 82.8566C73.01 71.4766 57.01 77.7966 56.23 78.1066L55.76 78.3365L55.19 77.6066C55.19 74.2266 55.25 69.6064 55.43 63.2364C55.65 55.6464 57.92 50.4066 62.37 47.1866C67.81 43.2566 75.6 42.9164 81.79 43.4864C81.7144 44.4007 81.8918 45.3181 82.3028 46.1383C82.7138 46.9585 83.3424 47.6496 84.12 48.1363C85.0392 48.7626 86.1579 49.0265 87.26 48.8766C96.5044 48.3079 105.781 49.1747 114.76 51.4464C114.457 52.0498 114.28 52.7082 114.239 53.3819C114.198 54.0556 114.293 54.7306 114.52 55.3663C114.841 56.272 115.417 57.0659 116.178 57.6529C116.939 58.24 117.852 58.5953 118.81 58.6764C151.95 61.4664 165.08 80.5062 170.14 92.7862C169.382 93.3961 168.818 94.2139 168.518 95.1393C168.218 96.0647 168.194 97.0575 168.45 97.9962H168.42ZM215.77 132.726L215.12 137.236C214.883 139.159 214.229 141.006 213.203 142.649C212.177 144.292 210.804 145.69 209.18 146.746C204.18 149.846 198.7 147.646 192.75 140.226C191.375 138.56 190.351 136.632 189.741 134.56C189.131 132.487 188.947 130.312 189.2 128.167C189.65 124.907 191.2 120.317 199.34 118.167C199.64 118.087 199.94 118.006 200.24 117.946C201.152 117.74 202.085 117.636 203.02 117.636C206.22 117.646 209.296 118.876 211.62 121.076C213.208 122.535 214.417 124.357 215.145 126.386C215.873 128.416 216.098 130.591 215.8 132.726H215.77Z" fill="#3A3A3A"/>
</svg>
