<?xml version="1.0" encoding="UTF-8"?>
<svg xmlns="http://www.w3.org/2000/svg" xmlns:xlink="http://www.w3.org/1999/xlink" width="40px" height="46px" viewBox="0 0 40 45" version="1.1">
<defs>
<clipPath id="clip1">
  <path d="M 0 9 L 32 9 L 32 44.910156 L 0 44.910156 Z M 0 9 "/>
</clipPath>
<linearGradient id="linear0" gradientUnits="userSpaceOnUse" x1="183.98" y1="75.1399" x2="-10.5505" y2="251.04" gradientTransform="matrix(0.17316,0,0,0.171103,0,0)">
<stop offset="0" style="stop-color:rgb(29.411765%,63.137255%,98.823529%);stop-opacity:1;"/>
<stop offset="1" style="stop-color:rgb(92.54902%,16.470588%,92.941176%);stop-opacity:1;"/>
</linearGradient>
<clipPath id="clip2">
  <path d="M 36 17 L 39.957031 17 L 39.957031 21 L 36 21 Z M 36 17 "/>
</clipPath>
<clipPath id="clip3">
  <path d="M 38 13 L 39.957031 13 L 39.957031 16 L 38 16 Z M 38 13 "/>
</clipPath>
</defs>
<g id="surface1">
<g clip-path="url(#clip1)" clip-rule="nonzero">
<path style=" stroke:none;fill-rule:evenodd;fill:url(#linear0);" d="M 31.253906 18.710938 L 28.933594 19.738281 L 29.03125 19.789062 L 29.03125 25.449219 L 10.5625 15.09375 L 15.636719 12.222656 L 15.710938 12.265625 L 15.328125 9.859375 L 15.316406 9.859375 L 7.75 14.136719 L 0.332031 18.320312 C 0.234375 18.375 0.148438 18.457031 0.09375 18.554688 C 0.0351562 18.652344 0.00390625 18.761719 0.00390625 18.875 L 0.00390625 35.800781 C 0.00390625 35.914062 0.0351562 36.027344 0.0898438 36.125 C 0.148438 36.222656 0.234375 36.300781 0.332031 36.359375 L 15.320312 44.820312 C 15.417969 44.875 15.53125 44.902344 15.644531 44.902344 C 15.757812 44.902344 15.871094 44.875 15.96875 44.820312 L 30.964844 36.359375 C 31.0625 36.300781 31.140625 36.21875 31.195312 36.121094 C 31.25 36.023438 31.28125 35.914062 31.28125 35.800781 L 31.28125 18.882812 C 31.28125 18.824219 31.269531 18.765625 31.253906 18.710938 Z M 2.246094 34.898438 L 2.246094 19.785156 L 7.1875 17 L 7.25 37.726562 Z M 9.433594 17.003906 L 27.894531 27.355469 L 9.496094 37.738281 Z M 29.03125 34.898438 L 15.636719 42.464844 L 10.636719 39.632812 L 29.03125 29.257812 Z M 29.03125 34.898438 "/>
</g>
<path style=" stroke:none;fill-rule:nonzero;fill:rgb(100%,100%,100%);fill-opacity:1;" d="M 28.703125 23.5 C 28.703125 23.5 28.703125 23.492188 28.710938 23.488281 C 28.71875 23.488281 28.71875 23.488281 28.71875 23.488281 L 28.71875 23.503906 C 28.71875 23.503906 28.714844 23.503906 28.714844 23.503906 C 28.710938 23.503906 28.707031 23.503906 28.707031 23.503906 Z M 28.703125 23.5 "/>
<path style=" stroke:none;fill-rule:nonzero;fill:rgb(100%,100%,100%);fill-opacity:1;" d="M 28.714844 25.691406 C 28.714844 25.691406 28.714844 25.691406 28.714844 25.683594 C 28.714844 25.671875 28.714844 25.683594 28.722656 25.683594 C 28.734375 25.683594 28.722656 25.691406 28.722656 25.691406 C 28.722656 25.695312 28.722656 25.691406 28.714844 25.691406 Z M 28.714844 25.691406 "/>
<path style=" stroke:none;fill-rule:nonzero;fill:rgb(100%,100%,100%);fill-opacity:1;" d="M 31.871094 18.167969 L 31.894531 18.167969 C 31.894531 18.167969 31.894531 18.175781 31.882812 18.179688 C 31.871094 18.179688 31.871094 18.179688 31.871094 18.179688 Z M 31.871094 18.167969 "/>
<path style=" stroke:none;fill-rule:nonzero;fill:rgb(100%,100%,100%);fill-opacity:1;" d="M 32.574219 26.902344 L 32.574219 26.894531 C 32.574219 26.894531 32.574219 26.894531 32.582031 26.894531 C 32.589844 26.894531 32.582031 26.902344 32.582031 26.902344 C 32.582031 26.90625 32.570312 26.902344 32.570312 26.902344 Z M 32.574219 26.902344 "/>
<path style="fill:none;stroke-width:8;stroke-linecap:round;stroke-linejoin:round;stroke:rgb(12.156863%,87.45098%,100%);stroke-opacity:1;stroke-miterlimit:4;" d="M 98.581055 29.63316 L 107.175879 95.794097 " transform="matrix(0.17316,0,0,0.171103,0,0)"/>
<path style="fill:none;stroke-width:8;stroke-linecap:round;stroke-linejoin:round;stroke:rgb(61.960784%,93.72549%,43.529412%);stroke-opacity:1;stroke-miterlimit:4;" d="M 125.899512 102.985503 L 165.805664 29.382031 " transform="matrix(0.17316,0,0,0.171103,0,0)"/>
<path style="fill:none;stroke-width:8;stroke-linecap:round;stroke-linejoin:round;stroke:rgb(86.666667%,86.666667%,6.27451%);stroke-opacity:1;stroke-miterlimit:4;" d="M 139.389551 112.505556 L 205.553906 82.073351 " transform="matrix(0.17316,0,0,0.171103,0,0)"/>
<path style=" stroke:none;fill-rule:nonzero;fill:rgb(96.862745%,89.803922%,2.352941%);fill-opacity:1;" d="M 37.355469 2.515625 L 36.335938 4.511719 L 37.542969 6.417969 L 35.167969 6.144531 L 33.570312 7.789062 L 33.121094 5.621094 L 30.929688 4.734375 L 33.027344 3.667969 L 33.265625 1.472656 L 35.015625 2.984375 Z M 37.355469 2.515625 "/>
<path style=" stroke:none;fill-rule:nonzero;fill:rgb(95.686275%,87.45098%,10.980392%);fill-opacity:1;" d="M 34.488281 18.507812 L 34.40625 19.246094 L 35.007812 19.765625 L 34.230469 19.878906 L 33.921875 20.554688 L 33.527344 19.886719 L 32.734375 19.785156 L 33.269531 19.257812 L 33.085938 18.519531 L 33.8125 18.859375 Z M 34.488281 18.507812 "/>
<path style=" stroke:none;fill-rule:nonzero;fill:rgb(93.72549%,3.921569%,66.27451%);fill-opacity:1;" d="M 20.515625 11.1875 L 21.164062 11.800781 L 22.082031 11.65625 L 21.648438 12.414062 L 22.085938 13.175781 L 21.164062 13.03125 L 20.515625 13.644531 L 20.382812 12.796875 L 19.542969 12.417969 L 20.382812 12.035156 Z M 20.515625 11.1875 "/>
<g clip-path="url(#clip2)" clip-rule="nonzero">
<path style=" stroke:none;fill-rule:nonzero;fill:rgb(12.156863%,87.45098%,100%);fill-opacity:1;" d="M 38.046875 17.929688 L 38.839844 18.675781 L 39.957031 18.496094 L 39.429688 19.421875 L 39.957031 20.347656 L 38.839844 20.171875 L 38.050781 20.917969 L 37.886719 19.886719 L 36.871094 19.425781 L 37.886719 18.960938 Z M 38.046875 17.929688 "/>
</g>
<path style=" stroke:none;fill-rule:nonzero;fill:rgb(61.960784%,93.72549%,43.529412%);fill-opacity:1;" d="M 12.410156 4.894531 L 13.394531 5.144531 L 14.222656 4.496094 L 14.222656 5.484375 L 15.078125 5.996094 L 14.089844 6.359375 L 13.792969 7.320312 L 13.183594 6.554688 L 12.144531 6.640625 L 12.753906 5.808594 Z M 12.410156 4.894531 "/>
<path style=" stroke:none;fill-rule:nonzero;fill:rgb(97.647059%,70.196078%,1.176471%);fill-opacity:1;" d="M 23.339844 1.988281 L 22.457031 3.234375 L 23.070312 4.609375 L 21.511719 4.21875 L 20.28125 5.183594 L 20.199219 3.699219 L 18.828125 2.914062 L 20.335938 2.386719 L 20.71875 0.941406 L 21.730469 2.101562 Z M 23.339844 1.988281 "/>
<path style=" stroke:none;fill-rule:nonzero;fill:rgb(76.862745%,24.705882%,91.764706%);fill-opacity:1;" d="M 28.453125 14.179688 C 28.96875 14.179688 29.386719 13.796875 29.386719 13.320312 C 29.386719 12.847656 28.96875 12.464844 28.453125 12.464844 C 27.9375 12.464844 27.523438 12.847656 27.523438 13.320312 C 27.523438 13.796875 27.9375 14.179688 28.453125 14.179688 Z M 28.453125 14.179688 "/>
<path style=" stroke:none;fill-rule:nonzero;fill:rgb(76.862745%,24.705882%,91.764706%);fill-opacity:1;" d="M 26.832031 1.476562 C 27.273438 1.476562 27.632812 1.148438 27.632812 0.738281 C 27.632812 0.332031 27.273438 0 26.832031 0 C 26.386719 0 26.027344 0.332031 26.027344 0.738281 C 26.027344 1.148438 26.386719 1.476562 26.832031 1.476562 Z M 26.832031 1.476562 "/>
<g clip-path="url(#clip3)" clip-rule="nonzero">
<path style=" stroke:none;fill-rule:nonzero;fill:rgb(76.862745%,24.705882%,91.764706%);fill-opacity:1;" d="M 38.976562 15.1875 C 39.417969 15.1875 39.773438 14.859375 39.773438 14.457031 C 39.773438 14.050781 39.417969 13.722656 38.976562 13.722656 C 38.535156 13.722656 38.179688 14.050781 38.179688 14.457031 C 38.179688 14.859375 38.535156 15.1875 38.976562 15.1875 Z M 38.976562 15.1875 "/>
</g>
<path style=" stroke:none;fill-rule:nonzero;fill:rgb(93.72549%,3.921569%,66.27451%);fill-opacity:1;" d="M 12.367188 10.027344 C 12.761719 10.027344 13.082031 9.730469 13.082031 9.367188 C 13.082031 9.003906 12.761719 8.710938 12.367188 8.710938 C 11.972656 8.710938 11.652344 9.003906 11.652344 9.367188 C 11.652344 9.730469 11.972656 10.027344 12.367188 10.027344 Z M 12.367188 10.027344 "/>
<path style=" stroke:none;fill-rule:nonzero;fill:rgb(93.72549%,3.921569%,66.27451%);fill-opacity:1;" d="M 32.371094 11.980469 C 33.242188 11.980469 33.949219 11.332031 33.949219 10.527344 C 33.949219 9.726562 33.242188 9.074219 32.371094 9.074219 C 31.5 9.074219 30.792969 9.726562 30.792969 10.527344 C 30.792969 11.332031 31.5 11.980469 32.371094 11.980469 Z M 32.371094 11.980469 "/>
<path style=" stroke:none;fill-rule:nonzero;fill:rgb(95.686275%,87.45098%,10.980392%);fill-opacity:1;" d="M 22.664062 8.8125 C 23.210938 8.8125 23.65625 8.402344 23.65625 7.894531 C 23.65625 7.390625 23.210938 6.980469 22.664062 6.980469 C 22.113281 6.980469 21.667969 7.390625 21.667969 7.894531 C 21.667969 8.402344 22.113281 8.8125 22.664062 8.8125 Z M 22.664062 8.8125 "/>
<path style=" stroke:none;fill-rule:nonzero;fill:rgb(95.686275%,87.45098%,10.980392%);fill-opacity:1;" d="M 25.617188 16.675781 C 26.078125 16.675781 26.449219 16.332031 26.449219 15.910156 C 26.449219 15.488281 26.078125 15.144531 25.617188 15.144531 C 25.160156 15.144531 24.789062 15.488281 24.789062 15.910156 C 24.789062 16.332031 25.160156 16.675781 25.617188 16.675781 Z M 25.617188 16.675781 "/>
<path style=" stroke:none;fill-rule:nonzero;fill:rgb(95.686275%,87.45098%,10.980392%);fill-opacity:1;" d="M 15.007812 2.402344 C 15.46875 2.402344 15.839844 2.0625 15.839844 1.640625 C 15.839844 1.21875 15.46875 0.875 15.007812 0.875 C 14.546875 0.875 14.175781 1.21875 14.175781 1.640625 C 14.175781 2.0625 14.546875 2.402344 15.007812 2.402344 Z M 15.007812 2.402344 "/>
<path style=" stroke:none;fill-rule:nonzero;fill:rgb(61.960784%,93.72549%,43.529412%);fill-opacity:1;" d="M 37.691406 10.984375 C 38.046875 10.984375 38.335938 10.714844 38.335938 10.386719 C 38.335938 10.058594 38.046875 9.792969 37.691406 9.792969 C 37.335938 9.792969 37.046875 10.058594 37.046875 10.386719 C 37.046875 10.714844 37.335938 10.984375 37.691406 10.984375 Z M 37.691406 10.984375 "/>
</g>
</svg>
