<svg width="231" height="263" viewBox="0 0 231 263" fill="none" xmlns="http://www.w3.org/2000/svg">
<g clip-path="url(#clip0_1244_2154)">
<path fill-rule="evenodd" clip-rule="evenodd" d="M180.49 109.35L167.1 115.35L167.65 115.66V148.74L60.9995 88.2099L90.3095 71.4399L90.7296 71.6799L88.5096 57.6299H88.4496L44.7495 82.6299L1.91956 107.07C1.34448 107.396 0.865836 107.868 0.532166 108.439C0.198495 109.01 0.0216314 109.659 0.0195312 110.32V209.24C0.0195722 209.901 0.19557 210.551 0.529449 211.122C0.863329 211.693 1.3431 212.165 1.91956 212.49L88.4695 261.96C89.0483 262.268 89.6939 262.429 90.3495 262.429C91.0052 262.429 91.6508 262.268 92.2296 261.96L178.82 212.49C179.375 212.148 179.834 211.67 180.154 211.101C180.474 210.533 180.645 209.892 180.65 209.24V110.36C180.641 110.018 180.588 109.678 180.49 109.35ZM12.9796 203.96V115.63L41.5096 99.3599L41.8695 220.49L12.9796 203.96ZM54.4895 99.3699L161.1 159.87L54.8495 220.57L54.4895 99.3699ZM167.65 203.97L90.3095 248.19L61.4196 231.63L167.65 170.99V203.97Z" fill="url(#paint0_linear_1244_2154)"/>
<path d="M165.75 137.35C165.75 137.35 165.75 137.29 165.8 137.28C165.85 137.27 165.86 137.28 165.86 137.28V137.36C165.849 137.37 165.835 137.375 165.82 137.375C165.805 137.375 165.791 137.37 165.78 137.36L165.75 137.35Z" fill="white"/>
<path d="M165.82 150.16C165.82 150.16 165.82 150.16 165.82 150.1C165.82 150.04 165.82 150.1 165.88 150.1C165.94 150.1 165.88 150.15 165.88 150.16C165.88 150.17 165.88 150.16 165.83 150.16H165.82Z" fill="white"/>
<path d="M184.06 106.18H184.11H184.18C184.18 106.18 184.18 106.23 184.12 106.24C184.06 106.25 184.06 106.24 184.06 106.24V106.18Z" fill="white"/>
<path d="M188.11 157.24V157.18C188.11 157.18 188.11 157.18 188.16 157.18C188.21 157.18 188.16 157.23 188.16 157.24C188.16 157.25 188.1 157.24 188.1 157.24H188.11Z" fill="white"/>
<path d="M98.5898 29.6299L107.17 95.7999" stroke="#1FDFFF" stroke-width="8" stroke-linecap="round" stroke-linejoin="round"/>
<path d="M125.91 102.99L165.8 29.3799" stroke="#9EEF6F" stroke-width="8" stroke-linecap="round" stroke-linejoin="round"/>
<path d="M139.39 112.5L205.55 82.0801" stroke="#DDDD10" stroke-width="8" stroke-linecap="round" stroke-linejoin="round"/>
<path d="M215.73 14.7004L209.84 26.3704L216.81 37.5103L203.09 35.9004L193.87 45.5204L191.28 32.8503L178.61 27.6604L190.74 21.4404L192.12 8.61035L202.21 17.4404L215.73 14.7004Z" fill="#F7E506"/>
<path d="M199.18 108.16L198.69 112.49L202.16 115.52L197.67 116.19L195.9 120.14L193.62 116.22L189.04 115.63L192.13 112.54L191.07 108.23L195.26 110.23L199.18 108.16Z" fill="#F4DF1C"/>
<path d="M118.47 65.3799L122.23 68.9699L127.53 68.1199L125.03 72.5599L127.54 76.9999L122.23 76.1599L118.48 79.7499L117.7 74.7899L112.87 72.5699L117.7 70.3499L118.47 65.3799Z" fill="#EF0AA9"/>
<path d="M219.73 104.78L224.3 109.15L230.75 108.11L227.71 113.51L230.76 118.91L224.31 117.89L219.74 122.26L218.8 116.22L212.92 113.53L218.79 110.82L219.73 104.78Z" fill="#1FDFFF"/>
<path d="M71.6599 28.6095L77.3599 30.0595L82.1299 26.2695V32.0495L87.0799 35.0395L81.3699 37.1595L79.6599 42.7895L76.1299 38.3195L70.1299 38.8195L73.6599 33.9395L71.6599 28.6095Z" fill="#9EEF6F"/>
<path d="M134.79 11.6198L129.69 18.8998L133.24 26.9298L124.24 24.6598L117.13 30.2898L116.66 21.6098L108.73 17.0398L117.44 13.9498L119.65 5.50977L125.5 12.2798L134.79 11.6198Z" fill="#F9B303"/>
<path d="M164.32 82.8798C167.292 82.8798 169.7 80.6323 169.7 77.8598C169.7 75.0874 167.292 72.8398 164.32 72.8398C161.349 72.8398 158.94 75.0874 158.94 77.8598C158.94 80.6323 161.349 82.8798 164.32 82.8798Z" fill="#C43FEA"/>
<path d="M154.95 8.64C157.512 8.64 159.59 6.70587 159.59 4.32C159.59 1.93413 157.512 0 154.95 0C152.387 0 150.31 1.93413 150.31 4.32C150.31 6.70587 152.387 8.64 154.95 8.64Z" fill="#C43FEA"/>
<path d="M225.09 88.77C227.631 88.77 229.69 86.8537 229.69 84.49C229.69 82.1262 227.631 80.21 225.09 80.21C222.55 80.21 220.49 82.1262 220.49 84.49C220.49 86.8537 222.55 88.77 225.09 88.77Z" fill="#C43FEA"/>
<path d="M71.42 58.6004C73.701 58.6004 75.55 56.8767 75.55 54.7504C75.55 52.6241 73.701 50.9004 71.42 50.9004C69.1391 50.9004 67.29 52.6241 67.29 54.7504C67.29 56.8767 69.1391 58.6004 71.42 58.6004Z" fill="#EF0AA9"/>
<path d="M186.95 70.02C191.981 70.02 196.06 66.2189 196.06 61.53C196.06 56.8411 191.981 53.04 186.95 53.04C181.919 53.04 177.84 56.8411 177.84 61.53C177.84 66.2189 181.919 70.02 186.95 70.02Z" fill="#EF0AA9"/>
<path d="M130.88 51.4998C134.05 51.4998 136.62 49.1045 136.62 46.1498C136.62 43.1951 134.05 40.7998 130.88 40.7998C127.71 40.7998 125.14 43.1951 125.14 46.1498C125.14 49.1045 127.71 51.4998 130.88 51.4998Z" fill="#F4DF1C"/>
<path d="M147.95 97.4498C150.601 97.4498 152.75 95.4485 152.75 92.9798C152.75 90.5111 150.601 88.5098 147.95 88.5098C145.299 88.5098 143.15 90.5111 143.15 92.9798C143.15 95.4485 145.299 97.4498 147.95 97.4498Z" fill="#F4DF1C"/>
<path d="M86.6701 14.0504C89.3211 14.0504 91.4701 12.0491 91.4701 9.58035C91.4701 7.11164 89.3211 5.11035 86.6701 5.11035C84.0191 5.11035 81.8701 7.11164 81.8701 9.58035C81.8701 12.0491 84.0191 14.0504 86.6701 14.0504Z" fill="#F4DF1C"/>
<path d="M217.67 64.1905C219.73 64.1905 221.4 62.6324 221.4 60.7105C221.4 58.7885 219.73 57.2305 217.67 57.2305C215.61 57.2305 213.94 58.7885 213.94 60.7105C213.94 62.6324 215.61 64.1905 217.67 64.1905Z" fill="#9EEF6F"/>
</g>
<defs>
<linearGradient id="paint0_linear_1244_2154" x1="183.98" y1="75.1399" x2="-10.5505" y2="251.04" gradientUnits="userSpaceOnUse">
<stop stop-color="#4BA1FC"/>
<stop offset="1" stop-color="#EC2AED"/>
</linearGradient>
<clipPath id="clip0_1244_2154">
<rect width="230.76" height="262.47" fill="white"/>
</clipPath>
</defs>
</svg>
