<svg width="126" height="25" viewBox="0 0 126 25" fill="none" xmlns="http://www.w3.org/2000/svg">
<path d="M20.7069 12.2L5.92672 20.6M20.7069 12.2L5.87341 3.83063M20.7069 12.2V6.6L10.8534 1L5.87341 3.83063M20.7069 12.2V17.8L10.8534 23.4L5.92672 20.6M5.92672 20.6L5.87341 3.83063M5.92672 20.6L1 17.8L1 6.6L5.87341 3.83063" stroke="url(#paint0_linear_983_60049)" stroke-width="1.6" stroke-linejoin="round"/>
<path class="letter" d="M37.4878 20.5382C40.4518 20.5382 42.4798 18.8482 42.4798 15.4682V15.1822H40.7898V15.4682C40.7898 17.8342 39.4638 18.9262 37.4878 18.9262C35.4858 18.9262 34.1858 17.8082 34.1858 15.4682V8.94223H41.7518V7.35624H34.1858V2.80623H32.4438V15.4682C32.4438 18.8482 34.4978 20.5382 37.4878 20.5382Z" fill="#100F11"/>
<path class="letter" d="M50.7927 20.5382C53.2887 20.5382 55.4207 19.3162 56.3307 17.0282V20.2002H57.9427V13.8562C57.9427 9.80023 55.1087 7.01823 51.0527 7.01823C46.9967 7.01823 44.1367 9.85223 44.1367 13.8562C44.1367 17.9642 47.1787 20.5382 50.7927 20.5382ZM51.0527 18.9262C47.9847 18.9262 45.9047 16.7422 45.9047 13.7782C45.9047 10.8142 47.9847 8.63023 51.0527 8.63023C54.1207 8.63023 56.2007 10.8142 56.2007 13.7782C56.2007 16.7422 54.1207 18.9262 51.0527 18.9262Z" fill="#100F11"/>
<path class="letter" d="M67.3645 20.5382C71.4465 20.5382 74.3065 17.6782 74.3065 13.7262C74.3065 9.77423 71.4205 7.01823 67.6505 7.01823C65.2065 7.01823 63.2045 8.16223 62.2425 10.1122V1.74023H60.5005V13.7002C60.5005 17.8342 63.3865 20.5382 67.3645 20.5382ZM67.3905 18.9262C64.2965 18.9262 62.2425 16.7422 62.2425 13.7782C62.2425 10.8142 64.2965 8.63023 67.3905 8.63023C70.4585 8.63023 72.5385 10.8142 72.5385 13.7782C72.5385 16.7422 70.4585 18.9262 67.3905 18.9262Z" fill="#100F11"/>
<path class="letter" d="M76.3442 20.2002H78.0862V13.4922C78.0862 10.3202 79.9062 8.63023 82.6882 8.63023C85.4702 8.63023 87.2902 10.3202 87.2902 13.4922V20.2002H89.0322V13.4922C89.0322 9.22824 86.4842 7.01823 82.6882 7.01823C78.8922 7.01823 76.3442 9.22824 76.3442 13.4922V20.2002Z" fill="#100F11"/>
<path class="letter" d="M92.9306 4.86023C93.6846 4.86023 94.2566 4.28823 94.2566 3.53423C94.2566 2.78023 93.6846 2.20823 92.9306 2.20823C92.1766 2.20823 91.6046 2.78023 91.6046 3.53423C91.6046 4.28823 92.1766 4.86023 92.9306 4.86023ZM92.0726 20.2002H93.8146V7.35624H92.0726V20.2002Z" fill="#100F11"/>
<path class="letter" d="M96.8345 20.2002H98.5765V13.4922C98.5765 10.3202 100.396 8.63023 103.178 8.63023C105.96 8.63023 107.78 10.3202 107.78 13.4922V20.2002H109.522V13.4922C109.522 9.22824 106.974 7.01823 103.178 7.01823C99.3825 7.01823 96.8345 9.22824 96.8345 13.4922V20.2002Z" fill="#100F11"/>
<path class="letter" d="M118.465 20.5382C121.455 20.5382 123.795 18.9782 124.783 16.6122H122.885C122.053 18.0942 120.493 18.9262 118.465 18.9262C115.579 18.9262 113.577 17.0282 113.343 14.3502H125.329V13.7782C125.329 9.87823 122.521 7.01823 118.465 7.01823C114.409 7.01823 111.549 9.87823 111.549 13.7782C111.549 17.6782 114.409 20.5382 118.465 20.5382ZM113.395 12.7902C113.785 10.2682 115.787 8.63023 118.465 8.63023C121.065 8.63023 123.093 10.1902 123.509 12.7902H113.395Z" fill="#100F11"/>
<defs>
<linearGradient id="paint0_linear_983_60049" x1="22.4471" y1="19.984" x2="1.30248" y2="0.668868" gradientUnits="userSpaceOnUse">
<stop stop-color="#4BA1FC"/>
<stop offset="1" stop-color="#EC2AED"/>
</linearGradient>
</defs>
</svg>
