<svg width="212" height="51" viewBox="0 0 212 51" fill="none" xmlns="http://www.w3.org/2000/svg">
<path fill-rule="evenodd" clip-rule="evenodd" d="M191.352 5.95085C191.711 5.74377 192.153 5.74376 192.511 5.95082L210.58 16.3826C210.938 16.5897 211.159 16.9723 211.159 17.3864V38.25C211.159 38.6641 210.938 39.0467 210.58 39.2538L192.511 49.6856C192.153 49.8926 191.711 49.8926 191.352 49.6856L173.284 39.2538C172.925 39.0467 172.704 38.6641 172.704 38.25V17.3864C172.704 16.9723 172.925 16.5896 173.284 16.3826L182.22 11.2238L191.352 5.95085ZM181.647 14.2314L175.022 18.0557V37.5808L181.732 41.4547L181.647 14.2314ZM185.216 43.4659L191.932 47.3434L208.841 37.5808V29.8258L185.216 43.4659ZM208.841 25.8179V18.0556L191.932 8.29304L185.124 12.2239L208.841 25.8179ZM183.965 14.2315L184.05 41.4619L207.676 27.8218L183.965 14.2315Z" fill="url(#paint0_linear)"/>
<path d="M10.5357 39.4999C15.5689 39.4999 18.9812 36.6847 18.9812 30.969V30.4998H14.9717V30.969C14.9717 34.3387 13.1802 35.7463 10.5357 35.7463C7.89109 35.7463 6.14226 34.2961 6.14226 30.969V21.5851H17.7443V17.8741H6.14226V10.4096H2.09009V30.969C2.09009 36.6847 5.50244 39.4999 10.5357 39.4999Z" fill="#F2F0F6"/>
<path d="M32.1875 39.4999C35.8557 39.4999 38.9695 37.7511 40.3771 34.3387V38.9454H44.088V28.5804C44.088 21.841 39.4814 17.3196 32.8699 17.3196C26.1732 17.3196 21.4812 21.969 21.4812 28.5804C21.4812 35.5331 26.685 39.4999 32.1875 39.4999ZM32.8273 35.7463C28.4765 35.7463 25.576 32.6752 25.576 28.4098C25.576 24.1443 28.4765 21.0732 32.8273 21.0732C37.178 21.0732 40.0785 24.1443 40.0785 28.4098C40.0785 32.6752 37.178 35.7463 32.8273 35.7463Z" fill="#F2F0F6"/>
<path d="M59.5033 39.4999C66.2 39.4999 70.892 34.8932 70.892 28.2818C70.892 21.2865 65.6882 17.3196 60.1858 17.3196C56.7734 17.3196 53.8729 18.8552 52.3373 21.5851V8.66077H48.2852V28.2392C48.2852 35.1065 52.9772 39.4999 59.5033 39.4999ZM59.546 35.7463C55.2379 35.7463 52.3373 32.6752 52.3373 28.4098C52.3373 24.1443 55.2379 21.0732 59.546 21.0732C63.8967 21.0732 66.7972 24.1443 66.7972 28.4098C66.7972 32.6752 63.8967 35.7463 59.546 35.7463Z" fill="#F2F0F6"/>
<path d="M74.2361 38.9454H78.2882V27.9832C78.2882 23.4192 80.8049 21.0732 84.6438 21.0732C88.4827 21.0732 90.9993 23.4192 90.9993 27.9832V38.9454H95.0514V27.9832C95.0514 20.9026 90.8713 17.3196 84.6438 17.3196C78.4162 17.3196 74.2361 20.9452 74.2361 27.9832V38.9454Z" fill="#F2F0F6"/>
<path d="M102.001 14.5471C103.622 14.5471 104.817 13.3101 104.817 11.6892C104.817 10.0684 103.622 8.87404 102.001 8.87404C100.381 8.87404 99.1863 10.0684 99.1863 11.6892C99.1863 13.3101 100.381 14.5471 102.001 14.5471ZM99.9967 38.9454H104.049V17.8741H99.9967V38.9454Z" fill="#F2F0F6"/>
<path d="M108.934 38.9454H112.987V27.9832C112.987 23.4192 115.503 21.0732 119.342 21.0732C123.181 21.0732 125.698 23.4192 125.698 27.9832V38.9454H129.75V27.9832C129.75 20.9026 125.57 17.3196 119.342 17.3196C113.115 17.3196 108.934 20.9452 108.934 27.9832V38.9454Z" fill="#F2F0F6"/>
<path d="M144.42 39.4999C149.326 39.4999 153.164 36.9833 154.785 33.0591H150.307C149.07 34.8932 147.15 35.7463 144.42 35.7463C140.752 35.7463 137.937 33.6563 137.34 29.9027H155.681V28.4098C155.681 22.0116 151.074 17.3196 144.42 17.3196C137.766 17.3196 133.074 22.0116 133.074 28.4098C133.074 34.8079 137.766 39.4999 144.42 39.4999ZM137.468 26.277C138.278 22.95 140.923 21.0732 144.42 21.0732C147.833 21.0732 150.605 22.9073 151.416 26.277H137.468Z" fill="#F2F0F6"/>
<defs>
<linearGradient id="paint0_linear" x1="214.555" y1="43.124" x2="173.008" y2="5.4605" gradientUnits="userSpaceOnUse">
<stop stop-color="#4BA1FC"/>
<stop offset="1" stop-color="#EC2AED"/>
</linearGradient>
</defs>
</svg>
