<svg width="19" height="19" viewBox="0 0 19 19" fill="none" xmlns="http://www.w3.org/2000/svg">
<path d="M13.8545 3.16016C14.3794 3.16016 14.8828 3.36867 15.254 3.73984C15.6251 4.11101 15.8337 4.61442 15.8337 5.13932V8.30599C15.8337 8.51595 15.7503 8.71732 15.6018 8.86578C15.4533 9.01425 15.252 9.09766 15.042 9.09766C14.832 9.09766 14.6307 9.01425 14.4822 8.86578C14.3337 8.71732 14.2503 8.51595 14.2503 8.30599V5.13932C14.2503 5.03434 14.2086 4.93366 14.1344 4.85943C14.0602 4.78519 13.9595 4.74349 13.8545 4.74349H5.14616C5.04118 4.74349 4.9405 4.78519 4.86626 4.85943C4.79203 4.93366 4.75033 5.03434 4.75033 5.13932V8.30599C4.75033 8.51595 4.66692 8.71732 4.51845 8.86578C4.36999 9.01425 4.16862 9.09766 3.95866 9.09766C3.7487 9.09766 3.54733 9.01425 3.39887 8.86578C3.2504 8.71732 3.16699 8.51595 3.16699 8.30599V5.13932C3.16699 4.61442 3.37551 4.11101 3.74668 3.73984C4.11784 3.36867 4.62125 3.16016 5.14616 3.16016H13.8545Z" fill="#40A6FF"/>
<path d="M12.5087 15.6077L12.5862 15.6742L12.5926 15.6789C12.7451 15.7927 12.9334 15.8476 13.1232 15.8339C13.3129 15.8201 13.4913 15.7384 13.6258 15.6039C13.7602 15.4693 13.8418 15.2908 13.8554 15.1011C13.8691 14.9113 13.8139 14.723 13.7001 14.5706L13.6954 14.5651L13.6281 14.4875L12.9947 13.8549L15.5202 13.8549L15.6049 13.8486L15.6128 13.847C15.9801 13.79 16.2295 13.4433 16.2295 13.0633C16.2295 12.6833 15.9801 12.3365 15.6128 12.2795L15.6049 12.2779L15.5194 12.2716L12.994 12.2716L13.6289 11.6367L13.7025 11.5496L13.7072 11.5433C13.8046 11.4071 13.8563 11.2435 13.8549 11.0761C13.8535 10.9087 13.799 10.746 13.6993 10.6115L13.6954 10.6059L13.6233 10.522L13.5307 10.4437L13.5244 10.4389C13.3882 10.3415 13.2246 10.2898 13.0572 10.2913C12.8898 10.2927 12.7271 10.3471 12.5926 10.4468L12.5862 10.4508L12.5087 10.5181L10.6403 12.3848L10.5889 12.4212L10.5833 12.4252C10.402 12.5724 10.292 12.8068 10.292 13.0625C10.292 13.3443 10.4266 13.6016 10.6427 13.7433L12.5087 15.6085L12.5087 15.6077Z" fill="#40A6FF"/>
<path d="M6.09583 10.5193L6.01825 10.4528L6.01192 10.448C5.85941 10.3343 5.67106 10.2793 5.48133 10.2931C5.29161 10.3069 5.11319 10.3885 4.97872 10.5231C4.84426 10.6577 4.76274 10.8361 4.74909 11.0259C4.73544 11.2156 4.79056 11.4039 4.90437 11.5563L4.90913 11.5619L4.97642 11.6395L5.60975 12.272H3.08433L2.99962 12.2783L2.99171 12.2799C2.62438 12.3369 2.375 12.6837 2.375 13.0637C2.375 13.4437 2.62438 13.7904 2.99171 13.8474L2.99962 13.849L3.08513 13.8553H5.61054L4.97563 14.4903L4.902 14.5773L4.89725 14.5837C4.79987 14.7199 4.74817 14.8834 4.7496 15.0509C4.75102 15.2183 4.80548 15.3809 4.90517 15.5155L4.90913 15.521L4.98117 15.6049L5.07379 15.6833L5.08012 15.688C5.21632 15.7854 5.37989 15.8371 5.54731 15.8357C5.71473 15.8343 5.87739 15.7798 6.01192 15.6801L6.01825 15.6762L6.09583 15.6089L7.96417 13.7421L8.01562 13.7057L8.02117 13.7018C8.20246 13.5545 8.3125 13.3202 8.3125 13.0645C8.3125 12.7826 8.17792 12.5253 7.96179 12.3836L6.09583 10.5185V10.5193Z" fill="#40A6FF"/>
</svg>
