<?xml version="1.0" standalone="no"?>
<!DOCTYPE svg PUBLIC "-//W3C//DTD SVG 20010904//EN"
 "http://www.w3.org/TR/2001/REC-SVG-20010904/DTD/svg10.dtd">
<svg version="1.0" xmlns="http://www.w3.org/2000/svg"
 width="30" height="30" viewBox="0 0 199.000000 166.000000"
 preserveAspectRatio="xMidYMid meet">

<g transform="translate(0.000000,166.000000) scale(0.100000,-0.100000)"
fill="#000000" stroke="none">
<path d="M882 1267 l-32 -33 0 -115 0 -115 33 -32 33 -32 235 0 235 0 32 33
32 33 0 115 0 115 -33 32 -33 32 -235 0 -235 0 -32 -33z m508 -147 l0 -120
-240 0 -240 0 0 120 0 120 240 0 240 0 0 -120z"/>
<path d="M627 993 c-16 -16 -14 -20 30 -65 l47 -48 -47 -48 -48 -48 21 -19
c21 -19 21 -18 88 48 l67 67 -65 65 c-35 36 -67 65 -70 65 -3 0 -13 -8 -23
-17z"/>
<path d="M882 787 l-32 -33 0 -115 0 -115 33 -32 33 -32 235 0 235 0 32 33 32
33 0 115 0 115 -33 32 -33 32 -235 0 -235 0 -32 -33z m508 -147 l0 -120 -240
0 -240 0 0 120 0 120 240 0 240 0 0 -120z"/>
</g>
</svg>
