<svg width="16" height="14" viewBox="0 0 16 14" fill="none" xmlns="http://www.w3.org/2000/svg">
<path d="M8.05258 0.500007C4.85658 0.500007 2.22991 2.94201 1.97391 6.05534H1.33324C1.23412 6.05529 1.13722 6.08471 1.05485 6.13986C0.972475 6.195 0.908356 6.27339 0.870632 6.36506C0.832908 6.45672 0.823282 6.55753 0.842976 6.65468C0.862671 6.75183 0.910798 6.84094 0.981244 6.91067L2.10124 8.02134C2.19488 8.11416 2.32139 8.16624 2.45324 8.16624C2.58509 8.16624 2.7116 8.11416 2.80524 8.02134L3.92524 6.91067C3.99569 6.84094 4.04382 6.75183 4.06351 6.65468C4.08321 6.55753 4.07358 6.45672 4.03586 6.36506C3.99813 6.27339 3.93401 6.195 3.85164 6.13986C3.76927 6.08471 3.67237 6.05529 3.57324 6.05534H2.97791C3.23124 3.50134 5.40324 1.50001 8.05258 1.50001C8.92608 1.49819 9.78543 1.72053 10.5484 2.14575C11.3115 2.57097 11.9526 3.18485 12.4106 3.92867C12.4441 3.98639 12.4888 4.0368 12.5421 4.07696C12.5954 4.11711 12.6562 4.14619 12.721 4.16247C12.7857 4.17875 12.853 4.18191 12.919 4.17176C12.9849 4.16162 13.0482 4.13837 13.105 4.10338C13.1619 4.0684 13.2111 4.02239 13.2499 3.96807C13.2887 3.91376 13.3162 3.85222 13.3308 3.78711C13.3454 3.72199 13.3469 3.6546 13.335 3.58892C13.3232 3.52324 13.2983 3.46059 13.2619 3.40467C12.7145 2.51553 11.9483 1.78162 11.0364 1.27308C10.1245 0.764546 9.0967 0.498375 8.05258 0.500007ZM13.8939 5.97801C13.8003 5.88559 13.6741 5.83377 13.5426 5.83377C13.4111 5.83377 13.2848 5.88559 13.1912 5.97801L12.0666 7.08867C11.9959 7.15834 11.9476 7.24744 11.9278 7.34464C11.9079 7.44184 11.9174 7.54275 11.9551 7.63452C11.9928 7.7263 12.0569 7.8048 12.1393 7.86003C12.2217 7.91526 12.3187 7.94472 12.4179 7.94467H13.0172C12.7626 10.498 10.5832 12.5 7.92124 12.5C7.045 12.5025 6.18273 12.2805 5.41659 11.8552C4.65045 11.43 4.00598 10.8156 3.54458 10.0707C3.51008 10.0148 3.46492 9.96622 3.41166 9.92777C3.3584 9.88933 3.29809 9.86175 3.23417 9.84662C3.17025 9.83148 3.10398 9.82908 3.03913 9.83956C2.97429 9.85003 2.91214 9.87318 2.85624 9.90767C2.74335 9.97734 2.66275 10.089 2.63219 10.2181C2.60162 10.3472 2.62358 10.4831 2.69324 10.596C3.24427 11.4861 4.01402 12.2203 4.92918 12.7286C5.84433 13.237 6.87439 13.5025 7.92124 13.5C11.1266 13.5 13.7646 11.06 14.0212 7.94467H14.6666C14.7658 7.94472 14.8628 7.91526 14.9452 7.86003C15.0276 7.8048 15.0917 7.7263 15.1294 7.63452C15.167 7.54275 15.1766 7.44184 15.1567 7.34464C15.1369 7.24744 15.0885 7.15834 15.0179 7.08867L13.8939 5.97801Z" fill="#40A6FF"/>
</svg>
