<svg width="14" height="15" viewBox="0 0 14 15" fill="none" xmlns="http://www.w3.org/2000/svg">
<path d="M8.05 4.35C7.75 4.55 7.43333 4.66667 7.1 4.7C6.76667 4.73333 6.45 4.68333 6.15 4.55C5.85 4.38333 5.6 4.16667 5.4 3.9C5.23333 3.6 5.13333 3.28333 5.1 2.95C5.06667 2.61667 5.13333 2.3 5.3 2C5.46667 1.7 5.68333 1.45 5.95 1.25C6.38333 0.983333 6.85 0.9 7.35 1C7.85 1.1 8.25 1.36667 8.55 1.8C8.85 2.2 8.95 2.66667 8.85 3.2C8.75 3.7 8.48333 4.08333 8.05 4.35ZM7.5 2.05C7.36667 1.95 7.21667 1.9 7.05 1.9C6.88333 1.86667 6.71667 1.88333 6.55 1.95C6.41667 2.01667 6.3 2.13333 6.2 2.3C6.1 2.43333 6.03333 2.58333 6 2.75C6 2.91667 6.03333 3.08333 6.1 3.25C6.2 3.38333 6.33333 3.5 6.5 3.6C6.7 3.73333 6.91667 3.76667 7.15 3.7C7.41667 3.63333 7.61667 3.5 7.75 3.3C7.88333 3.1 7.91667 2.88333 7.85 2.65C7.81667 2.38333 7.7 2.18333 7.5 2.05ZM9.95 2.05C10.25 1.88333 10.5667 1.81667 10.9 1.85C11.2333 1.88333 11.5167 2.01667 11.75 2.25C11.9167 2.41667 12.0333 2.61667 12.1 2.85C12.1667 3.05 12.1667 3.26667 12.1 3.5C12.0667 3.73333 11.9667 3.95 11.8 4.15C11.6667 4.31667 11.4833 4.45 11.25 4.55C11.0167 4.65 10.75 4.68333 10.45 4.65C10.1833 4.58333 9.95 4.45 9.75 4.25C9.45 3.91667 9.31667 3.53333 9.35 3.1C9.38333 2.66667 9.58333 2.31667 9.95 2.05ZM10.4 3.55C10.5 3.65 10.6167 3.7 10.75 3.7C10.8833 3.7 10.9833 3.66667 11.05 3.6C11.15 3.5 11.2 3.38333 11.2 3.25C11.2 3.11667 11.15 3 11.05 2.9C10.9833 2.8 10.8833 2.75 10.75 2.75C10.6167 2.75 10.5 2.8 10.4 2.9C10.3333 3 10.3 3.11667 10.3 3.25C10.3 3.38333 10.3333 3.48333 10.4 3.55ZM2.5 11.7H4.2V12.65H2.5C2.2 12.65 1.93333 12.55 1.7 12.35C1.46667 12.1167 1.35 11.8333 1.35 11.5V9.8C1.11667 9.8 0.9 9.7 0.7 9.5C0.533333 9.3 0.45 9.06667 0.45 8.8V6.75C0.45 6.31667 0.6 5.93333 0.9 5.6C1.23333 5.26667 1.63333 5.1 2.1 5.1H3.8C3.56667 5.36667 3.4 5.68333 3.3 6.05H2.1C1.9 6.05 1.71667 6.13333 1.55 6.3C1.41667 6.43333 1.35 6.58333 1.35 6.75V8.85H2.3V11.5C2.3 11.5667 2.31667 11.6167 2.35 11.65C2.38333 11.6833 2.43333 11.7 2.5 11.7ZM9.35 5.6C9.01667 5.26667 8.61667 5.1 8.15 5.1H5.85C5.38333 5.1 4.98333 5.26667 4.65 5.6C4.35 5.93333 4.2 6.33333 4.2 6.8V9.75C4.2 10.0167 4.28333 10.25 4.45 10.45C4.65 10.65 4.88333 10.75 5.15 10.75V12.95C5.11667 13.25 5.21667 13.5167 5.45 13.75C5.61667 13.9167 5.81667 14.0167 6.05 14.05H7.95C8.21667 13.9833 8.43333 13.85 8.6 13.65C8.8 13.45 8.9 13.2167 8.9 12.95V10.75C9.13333 10.75 9.33333 10.65 9.5 10.45C9.7 10.25 9.8 10.0167 9.8 9.75V6.75C9.8 6.31667 9.65 5.93333 9.35 5.6ZM8.9 9.8H7.95V12.95C7.95 12.9833 7.93333 13.0167 7.9 13.05C7.86667 13.0833 7.81667 13.1 7.75 13.1H6.25C6.18333 13.1 6.13333 13.0833 6.1 13.05C6.06667 13.0167 6.05 12.9833 6.05 12.95V9.8H5.15V6.75C5.11667 6.58333 5.16667 6.43333 5.3 6.3C5.46667 6.13333 5.65 6.05 5.85 6.05H8.15C8.31667 6.05 8.45 6.1 8.55 6.2C8.68333 6.26667 8.76667 6.36667 8.8 6.5C8.86667 6.6 8.9 6.68333 8.9 6.75V9.8ZM11.5 12.65H9.8V11.7H11.5C11.5333 11.7 11.5667 11.6833 11.6 11.65C11.6667 11.6167 11.7 11.5667 11.7 11.5V8.85H12.65V6.75C12.65 6.58333 12.5667 6.43333 12.4 6.3C12.2667 6.13333 12.1 6.05 11.9 6.05H10.7C10.6 5.68333 10.4333 5.36667 10.2 5.1H11.9C12.3667 5.1 12.75 5.26667 13.05 5.6C13.3833 5.93333 13.55 6.31667 13.55 6.75V8.8C13.55 9.06667 13.45 9.3 13.25 9.5C13.0833 9.7 12.8833 9.8 12.65 9.8V11.5C12.65 11.8333 12.5333 12.1167 12.3 12.35C12.0667 12.55 11.8 12.65 11.5 12.65ZM3.25 1.8C2.95 1.8 2.68333 1.88333 2.45 2.05C2.21667 2.21667 2.05 2.43333 1.95 2.7C1.85 2.96667 1.81667 3.25 1.85 3.55C1.91667 3.81667 2.05 4.05 2.25 4.25C2.45 4.45 2.68333 4.58333 2.95 4.65C3.25 4.68333 3.53333 4.65 3.8 4.55C4.06667 4.45 4.26667 4.28333 4.4 4.05C4.56667 3.78333 4.65 3.51667 4.65 3.25C4.65 2.85 4.51667 2.51667 4.25 2.25C3.98333 1.95 3.65 1.8 3.25 1.8ZM3.25 3.7C3.11667 3.7 3 3.66667 2.9 3.6C2.83333 3.5 2.8 3.38333 2.8 3.25C2.8 3.11667 2.83333 3 2.9 2.9C3 2.8 3.11667 2.75 3.25 2.75C3.38333 2.75 3.48333 2.8 3.55 2.9C3.65 3 3.7 3.11667 3.7 3.25C3.7 3.38333 3.65 3.5 3.55 3.6C3.48333 3.66667 3.38333 3.7 3.25 3.7Z" fill="#BBBBBB"/>
</svg>
