<svg width="12" height="15" viewBox="0 0 12 15" fill="none" xmlns="http://www.w3.org/2000/svg">
<path d="M11.65 9.35V12.65L11.15 13.1H6.95V12.2H10.7V10.3H2C1.9 10.3 1.81667 10.3167 1.75 10.35C1.55 10.45 1.41667 10.5833 1.35 10.75C1.31667 10.85 1.3 10.9333 1.3 11V11.5C1.3 11.5667 1.31667 11.65 1.35 11.75C1.41667 11.9167 1.55 12.05 1.75 12.15C1.81667 12.1833 1.9 12.2 2 12.2H2.25V13.1H2C1.8 13.1 1.6 13.0667 1.4 13C0.966667 12.8333 0.666667 12.5333 0.5 12.1C0.4 11.9 0.35 11.7 0.35 11.5V2.6C0.383333 2.4 0.433333 2.2 0.5 2C0.666667 1.56667 0.966667 1.25 1.4 1.05C1.6 0.983333 1.8 0.95 2 0.95H11.15L11.65 1.4V9.35ZM2.25 9.35H10.7V1.85H2.25V9.35ZM3.2 2.8V3.75H4.15V2.8H3.2ZM3.2 4.7V5.6H4.15V4.7H3.2ZM4.15 6.55V7.5H3.2V6.55H4.15ZM4.6 12.65L5.75 14.05H6V11.25H3.2V14.05H3.45L4.6 12.65Z" fill="#BBBBBB"/>
</svg>
