<svg width="14" height="12" viewBox="0 0 14 12" fill="none" xmlns="http://www.w3.org/2000/svg">
<path d="M4.76 11.3667C4.51111 11.3667 4.27778 11.2889 4.06 11.1333C3.84222 10.9467 3.68667 10.7289 3.59333 10.48C3.53111 10.2 3.56222 9.92 3.68667 9.64L4.52667 7.72667H2.1C1.88222 7.75778 1.68 7.72667 1.49333 7.63333C1.30667 7.54 1.15111 7.41556 1.02667 7.26C0.933333 7.07333 0.871111 6.87111 0.84 6.65333C0.84 6.43556 0.886667 6.23333 0.98 6.04667C2.06889 3.74444 2.73778 2.23556 2.98667 1.52C3.08 1.30222 3.22 1.13111 3.40667 1.00667C3.62444 0.851111 3.85778 0.757778 4.10667 0.726667H11.9C12.2422 0.757778 12.5222 0.897778 12.74 1.14667C12.9889 1.36444 13.1133 1.64444 13.1133 1.98667V5.06667C13.1133 5.37778 12.9889 5.65778 12.74 5.90667C12.5222 6.12444 12.2422 6.23333 11.9 6.23333H10.7333L5.6 11.04C5.35111 11.2578 5.07111 11.3667 4.76 11.3667ZM4.10667 1.61333C3.95111 1.61333 3.84222 1.69111 3.78 1.84667C3.43778 2.81111 2.76889 4.33556 1.77333 6.42C1.71111 6.54444 1.71111 6.66889 1.77333 6.79333C1.83556 6.88667 1.94444 6.91778 2.1 6.88667H4.99333L5.41333 7.44667V7.86667L4.48 10.0133C4.44889 10.0756 4.43333 10.1533 4.43333 10.2467C4.46444 10.3089 4.51111 10.3711 4.57333 10.4333C4.63556 10.4644 4.69778 10.48 4.76 10.48C4.85333 10.48 4.93111 10.4489 4.99333 10.3867L10.3133 5.53333L10.7333 5.39333H11.9C11.9933 5.39333 12.0711 5.36222 12.1333 5.3C12.2267 5.23778 12.2733 5.16 12.2733 5.06667V1.98667C12.2733 1.89333 12.2267 1.81556 12.1333 1.75333C12.0711 1.66 11.9933 1.61333 11.9 1.61333H4.10667Z" fill="#7F7F7F"/>
</svg>
