<svg width="14" height="12" viewBox="0 0 14 12" fill="none" xmlns="http://www.w3.org/2000/svg">
<path d="M9.24 0.726667C9.48889 0.757778 9.72222 0.851111 9.94 1.00667C10.1578 1.16222 10.2978 1.38 10.36 1.66C10.4533 1.90889 10.4378 2.17333 10.3133 2.45333L9.47333 4.36667H11.9C12.1178 4.33556 12.32 4.38222 12.5067 4.50667C12.6933 4.6 12.8333 4.74 12.9267 4.92667C13.0511 5.08222 13.1133 5.26889 13.1133 5.48667C13.1444 5.67333 13.1133 5.86 13.02 6.04667C11.9311 8.34889 11.2622 9.85778 11.0133 10.5733C10.92 10.7911 10.7644 10.9778 10.5467 11.1333C10.36 11.2889 10.1422 11.3667 9.89333 11.3667H2.1C1.75778 11.3356 1.46222 11.2111 1.21333 10.9933C0.995556 10.7444 0.886667 10.4489 0.886667 10.1067V7.02667C0.886667 6.71556 0.995556 6.45111 1.21333 6.23333C1.46222 5.98444 1.75778 5.86 2.1 5.86H3.31333L8.4 1.05333C8.64889 0.866667 8.92889 0.757778 9.24 0.726667ZM9.89333 10.48C10.0489 10.48 10.1578 10.4022 10.22 10.2467C10.5622 9.28222 11.2467 7.75778 12.2733 5.67333C12.3044 5.54889 12.2889 5.44 12.2267 5.34667C12.1644 5.22222 12.0556 5.17556 11.9 5.20667H9.05333L8.58667 4.64667V4.22667L9.52 2.08C9.55111 2.01778 9.55111 1.95556 9.52 1.89333C9.52 1.8 9.48889 1.73778 9.42667 1.70667C9.36444 1.64444 9.28667 1.61333 9.19333 1.61333C9.13111 1.61333 9.06889 1.64444 9.00667 1.70667L3.68667 6.56L3.26667 6.7H2.1C2.00667 6.7 1.91333 6.73111 1.82 6.79333C1.75778 6.85556 1.74222 6.93333 1.77333 7.02667V10.1067C1.74222 10.2 1.75778 10.2933 1.82 10.3867C1.91333 10.4489 2.00667 10.48 2.1 10.48H9.89333Z" fill="#7F7F7F"/>
</svg>
