<svg width="20" height="20" viewBox="0 0 20 20" fill="none" xmlns="http://www.w3.org/2000/svg">
<path d="M6.40667 6.03333C6.5 6.15778 6.56222 6.31333 6.59333 6.5C6.65556 6.65556 6.68667 6.84222 6.68667 7.06V9.34667H5.8V9.02C5.58222 9.3 5.30222 9.44 4.96 9.44C4.80444 9.44 4.64889 9.40889 4.49333 9.34667C4.21333 9.22222 4.02667 9.02 3.93333 8.74C3.84 8.46 3.84 8.16444 3.93333 7.85333C3.96444 7.72889 4.02667 7.62 4.12 7.52667C4.21333 7.40222 4.32222 7.30889 4.44667 7.24667C4.60222 7.15333 4.78889 7.09111 5.00667 7.06L5.84667 6.96667C5.81556 6.78 5.75333 6.64 5.66 6.54667C5.59778 6.45333 5.47333 6.40667 5.28667 6.40667C5.13111 6.40667 4.96 6.45333 4.77333 6.54667C4.61778 6.60889 4.47778 6.68667 4.35333 6.78L4.16667 6.92V5.98667L4.44667 5.84667C4.63333 5.75333 4.83556 5.69111 5.05333 5.66C5.39556 5.59778 5.70667 5.61333 5.98667 5.70667C6.14222 5.76889 6.28222 5.87778 6.40667 6.03333ZM5.84667 7.66667L5.24 7.76C5.14667 7.76 5.06889 7.77556 5.00667 7.80667C4.94444 7.83778 4.88222 7.88444 4.82 7.94667C4.78889 7.97778 4.77333 8.00889 4.77333 8.04V8.22667C4.77333 8.28889 4.77333 8.35111 4.77333 8.41333C4.80444 8.44444 4.83556 8.47556 4.86667 8.50667C4.89778 8.53778 4.94444 8.56889 5.00667 8.6C5.16222 8.66222 5.31778 8.66222 5.47333 8.6C5.62889 8.50667 5.73778 8.36667 5.8 8.18C5.83111 8.08667 5.84667 7.99333 5.84667 7.9V7.66667ZM10.2333 6.73333C10.2956 6.95111 10.3267 7.18444 10.3267 7.43333C10.3267 7.68222 10.2956 7.93111 10.2333 8.18C10.1711 8.42889 10.0778 8.64667 9.95333 8.83333C9.86 9.02 9.72 9.16 9.53333 9.25333C9.37778 9.34667 9.19111 9.39333 8.97333 9.39333C8.84889 9.39333 8.75556 9.37778 8.69333 9.34667C8.50667 9.31556 8.36667 9.22222 8.27333 9.06667V9.3H7.43333V3.88667H8.27333V6.03333C8.33556 5.94 8.41333 5.86222 8.50667 5.8C8.66222 5.67556 8.84889 5.61333 9.06667 5.61333C9.28444 5.61333 9.47111 5.67556 9.62667 5.8C9.81333 5.89333 9.95333 6.03333 10.0467 6.22C10.14 6.37556 10.2022 6.54667 10.2333 6.73333ZM9.48667 7.38667C9.48667 7.26222 9.47111 7.13778 9.44 7.01333C9.40889 6.85778 9.37778 6.74889 9.34667 6.68667C9.22222 6.5 9.06667 6.42222 8.88 6.45333C8.78667 6.42222 8.69333 6.43778 8.6 6.5C8.53778 6.53111 8.47556 6.59333 8.41333 6.68667C8.38222 6.74889 8.35111 6.84222 8.32 6.96667C8.28889 7.09111 8.25778 7.21556 8.22667 7.34V7.80667C8.22667 7.93111 8.24222 8.04 8.27333 8.13333C8.30444 8.22667 8.35111 8.30444 8.41333 8.36667C8.47556 8.42889 8.53778 8.49111 8.6 8.55333C8.75556 8.61556 8.92667 8.6 9.11333 8.50667C9.17556 8.47556 9.23778 8.41333 9.3 8.32C9.36222 8.22667 9.40889 8.10222 9.44 7.94667C9.47111 7.79111 9.48667 7.60444 9.48667 7.38667ZM5.1 11.68C5.03778 11.7733 4.97556 11.8978 4.91333 12.0533C4.85111 12.1778 4.82 12.3333 4.82 12.52C4.82 12.6756 4.83556 12.8156 4.86667 12.94C4.92889 13.0644 4.99111 13.1733 5.05333 13.2667C5.14667 13.36 5.24 13.4378 5.33333 13.5C5.52 13.5622 5.70667 13.5778 5.89333 13.5467L6.36 13.36L6.64 13.2667V14.06L6.54667 14.1067C6.42222 14.1689 6.28222 14.2311 6.12667 14.2933C5.97111 14.3244 5.78444 14.34 5.56667 14.34C5.34889 14.34 5.13111 14.2933 4.91333 14.2C4.72667 14.1067 4.55556 13.9822 4.4 13.8267C4.27556 13.6711 4.16667 13.4844 4.07333 13.2667C4.01111 13.0489 3.98 12.8156 3.98 12.5667C3.98 12.2867 4.01111 12.0378 4.07333 11.82C4.16667 11.5711 4.29111 11.3533 4.44667 11.1667C4.60222 10.98 4.78889 10.84 5.00667 10.7467C5.22444 10.6533 5.47333 10.6067 5.75333 10.6067C6.03333 10.5756 6.29778 10.6378 6.54667 10.7933L6.64 10.84V11.82L6.31333 11.5867C6.22 11.5244 6.12667 11.4778 6.03333 11.4467C5.94 11.4156 5.83111 11.4 5.70667 11.4C5.58222 11.4 5.47333 11.4311 5.38 11.4933C5.28667 11.5244 5.19333 11.5867 5.1 11.68ZM15.2733 8.22667V12.6133H9.95333L11.7267 10.8867L11.0733 10.2333L8.55333 12.8V13.4067L11.0733 15.9267L11.7267 15.32L9.90667 13.5H15.6933L16.1133 13.08V7.80667L15.6933 7.38667H11.7733V8.22667H15.2733Z" fill="#606060"/>
</svg>
