<svg width="20" height="20" viewBox="0 0 20 20" fill="none" xmlns="http://www.w3.org/2000/svg">
<path d="M5.90667 5.467C6.01333 5.60923 6.08444 5.787 6.12 6.00034C6.19111 6.17812 6.22667 6.39145 6.22667 6.64034V9.25367H5.21333V8.88034C4.96444 9.20034 4.64444 9.36034 4.25333 9.36034C4.07556 9.36034 3.89778 9.32478 3.72 9.25367C3.4 9.11145 3.18667 8.88034 3.08 8.56034C2.97333 8.24034 2.97333 7.90256 3.08 7.547C3.11556 7.40478 3.18667 7.28034 3.29333 7.17367C3.4 7.03145 3.52444 6.92478 3.66667 6.85367C3.84444 6.747 4.05778 6.67589 4.30667 6.64034L5.26667 6.53367C5.23111 6.32034 5.16 6.16034 5.05333 6.05367C4.98222 5.94701 4.84 5.89367 4.62667 5.89367C4.44889 5.89367 4.25333 5.94701 4.04 6.05367C3.86222 6.12478 3.70222 6.21367 3.56 6.32034L3.34667 6.48034V5.41367L3.66667 5.25367C3.88 5.14701 4.11111 5.07589 4.36 5.04034C4.75111 4.96923 5.10667 4.98701 5.42667 5.09367C5.60444 5.16478 5.76444 5.28923 5.90667 5.467ZM5.26667 7.33367L4.57333 7.44034C4.46667 7.44034 4.37778 7.45812 4.30667 7.49367C4.23556 7.52923 4.16444 7.58256 4.09333 7.65367C4.05778 7.68923 4.04 7.72478 4.04 7.76034V7.97367C4.04 8.04478 4.04 8.11589 4.04 8.18701C4.07556 8.22256 4.11111 8.25812 4.14667 8.29367C4.18222 8.32923 4.23556 8.36478 4.30667 8.40034C4.48444 8.47145 4.66222 8.47145 4.84 8.40034C5.01778 8.29367 5.14222 8.13367 5.21333 7.92034C5.24889 7.81367 5.26667 7.70701 5.26667 7.60034V7.33367ZM10.28 6.267C10.3511 6.51589 10.3867 6.78256 10.3867 7.06701C10.3867 7.35145 10.3511 7.63589 10.28 7.92034C10.2089 8.20478 10.1022 8.45367 9.96 8.667C9.85333 8.88034 9.69333 9.04034 9.48 9.14701C9.30222 9.25367 9.08889 9.307 8.84 9.307C8.69778 9.307 8.59111 9.28923 8.52 9.25367C8.30667 9.21812 8.14667 9.11145 8.04 8.93367V9.20034H7.08V3.01367H8.04V5.467C8.11111 5.36034 8.2 5.27145 8.30667 5.20034C8.48444 5.05812 8.69778 4.98701 8.94667 4.98701C9.19556 4.98701 9.40889 5.05812 9.58667 5.20034C9.8 5.307 9.96 5.467 10.0667 5.68034C10.1733 5.85812 10.2444 6.05367 10.28 6.267ZM9.42667 7.01367C9.42667 6.87145 9.40889 6.72923 9.37333 6.587C9.33778 6.40923 9.30222 6.28478 9.26667 6.21367C9.12444 6.00034 8.94667 5.91145 8.73333 5.94701C8.62667 5.91145 8.52 5.92923 8.41333 6.00034C8.34222 6.03589 8.27111 6.10701 8.2 6.21367C8.16444 6.28478 8.12889 6.39145 8.09333 6.53367C8.05778 6.67589 8.02222 6.81812 7.98667 6.96034V7.49367C7.98667 7.63589 8.00444 7.76034 8.04 7.86701C8.07556 7.97367 8.12889 8.06256 8.2 8.13367C8.27111 8.20478 8.34222 8.27589 8.41333 8.347C8.59111 8.41812 8.78667 8.40034 9 8.29367C9.07111 8.25812 9.14222 8.18701 9.21333 8.08034C9.28444 7.97367 9.33778 7.83145 9.37333 7.65367C9.40889 7.47589 9.42667 7.26256 9.42667 7.01367ZM4.41333 11.9203C4.34222 12.027 4.27111 12.1692 4.2 12.347C4.12889 12.4892 4.09333 12.667 4.09333 12.8803C4.09333 13.0581 4.11111 13.2181 4.14667 13.3603C4.21778 13.5026 4.28889 13.627 4.36 13.7337C4.46667 13.8403 4.57333 13.9292 4.68 14.0003C4.89333 14.0714 5.10667 14.0892 5.32 14.0537L5.85333 13.8403L6.17333 13.7337V14.6403L6.06667 14.6937C5.92444 14.7648 5.76444 14.8359 5.58667 14.907C5.40889 14.9426 5.19556 14.9603 4.94667 14.9603C4.69778 14.9603 4.44889 14.907 4.2 14.8003C3.98667 14.6937 3.79111 14.5514 3.61333 14.3737C3.47111 14.1959 3.34667 13.9826 3.24 13.7337C3.16889 13.4848 3.13333 13.2181 3.13333 12.9337C3.13333 12.6137 3.16889 12.3292 3.24 12.0803C3.34667 11.7959 3.48889 11.547 3.66667 11.3337C3.84444 11.1203 4.05778 10.9603 4.30667 10.8537C4.55556 10.747 4.84 10.6937 5.16 10.6937C5.48 10.6581 5.78222 10.7292 6.06667 10.907L6.17333 10.9603V12.0803L5.8 11.8137C5.69333 11.7426 5.58667 11.6892 5.48 11.6537C5.37333 11.6181 5.24889 11.6003 5.10667 11.6003C4.96444 11.6003 4.84 11.6359 4.73333 11.707C4.62667 11.7426 4.52 11.8137 4.41333 11.9203ZM16.04 7.97367V12.987H9.96L11.9867 11.0137L11.24 10.267L8.36 13.2003V13.8937L11.24 16.7737L11.9867 16.0803L9.90667 14.0003H16.52L17 13.5203V7.49367L16.52 7.01367H12.04V7.97367H16.04Z" fill="#606060"/>
</svg>
